<svg width="500" height="180" viewBox="0 0 500 180" fill="none" xmlns="http://www.w3.org/2000/svg">
    <path d="M19.2533 32.96C47.8 33.0933 76.36 32.96 104.907 33.0266C106.493 32.92 107.467 34.4933 108.6 35.36C113.027 39.8266 117.693 44.0533 121.947 48.6933C126.48 53.5333 131.96 57.5333 135.52 63.2133C106.573 63.5866 77.6133 63.2933 48.6533 63.36C48.56 72.9066 48.88 82.48 48.4533 92.0266C38.3333 82.92 29.1333 72.8 19.2933 63.3733C18.64 53.2933 18.8533 43.0666 19.2533 32.96Z" fill="#4680ff"/>
    <path d="M232.68 32.9733C236.707 33.0266 240.72 33.04 244.747 32.96C245.093 37.2266 245.04 41.52 244.893 45.8C240.787 45.6933 236.693 45.72 232.587 45.7733C232.36 41.5066 232.333 37.2266 232.68 32.9733Z" fill="#4680ff"/>
    <path d="M167.667 33.8267C184.987 33.6801 202.307 33.7734 219.627 33.7734C219.667 37.7734 219.68 41.7734 219.493 45.7601C206.933 45.7067 194.373 45.7467 181.827 45.7467C181.853 57.8267 181.88 69.9067 181.8 81.9867C192.533 81.8934 203.267 81.9734 214.013 81.9334C214.027 85.9601 214.027 89.9867 214.013 94.0134C203.307 94.0267 192.6 94.0934 181.893 93.9867C181.733 102.68 181.96 111.387 181.8 120.08C178.213 123.493 172.373 121.027 167.827 121.6C167.453 92.3467 167.787 63.0801 167.667 33.8267Z" fill="#4680ff"/>
    <path d="M232.44 57.8C236.627 57.8267 240.8 57.8267 244.987 57.8267C244.987 79.0934 245.053 100.373 244.947 121.653C240.8 121.76 236.64 121.827 232.507 121.52C232.347 100.28 232.453 79.04 232.44 57.8Z" fill="#4680ff"/>
    <path d="M270.44 65.4399C278.56 56.5066 292.227 56.0266 302.893 60.0533C311.653 63.0266 318.493 70.7866 320.64 79.7333C323.213 93.1599 321.173 106.92 322.027 120.48C317.92 122.573 313.24 121.507 308.84 121.707C308.533 110.467 308.84 99.2133 308.68 87.9733C308.467 80.7333 303.96 73.8666 297.173 71.1733C290.573 68.9866 282.627 69.8666 277.36 74.6933C272.213 78.7866 270.413 85.6266 270.36 91.9333C270.333 101.827 270.467 111.707 270.293 121.587C266.107 121.773 261.907 121.813 257.733 121.56C257.427 100.36 257.853 79.1599 257.52 57.9599C261.787 57.7599 266.053 57.8133 270.333 57.8399C270.36 60.3733 270.387 62.9066 270.44 65.4399Z" fill="#4680ff"/>
    <path d="M359.253 58.4266C369.24 56.1466 380.56 58.7332 387.76 66.2666C387.68 63.4399 387.72 60.6266 387.8 57.8132C391.96 57.8399 396.107 57.8532 400.267 57.7866C400.627 78.5332 400.413 99.2932 400.4 120.04C397.64 123.533 391.96 121.027 388 121.56C387.76 118.813 387.693 116.067 387.6 113.32C382.027 117.72 375.307 121.4 368 121.12C353.52 122.307 339.36 111.387 336.467 97.2266C334.133 88.1999 336.08 78.2399 341.36 70.6132C345.84 64.7866 352.173 60.4266 359.253 58.4266ZM356.84 71.6932C347.827 76.3999 343.04 88.3999 347.773 97.7066C350.307 104.613 357.36 108.2 364.093 109.813C368.733 110.453 373.107 108.453 377.16 106.48C384.8 102.88 389.267 93.8932 387.507 85.6132C384.067 73.1732 368.56 65.4666 356.84 71.6932Z" fill="#4680ff"/>
    <path d="M412.733 57.8532C417.187 57.7998 421.64 57.7865 426.093 57.9332C426.027 60.3332 425.96 62.7332 425.827 65.1332C433.92 56.8532 446.8 56.1198 457.24 59.7198C469.187 63.3065 477.373 75.6798 477.027 87.9865C477 99.1732 477.173 110.373 476.92 121.56C472.693 121.787 468.453 121.747 464.24 121.693C463.4 113.6 463.96 105.453 463.813 97.3465C463.613 91.3599 464.6 84.9999 461.88 79.4132C458.693 74.1198 452.92 70.1065 446.587 70.1198C436.053 69.0532 425.093 78.4265 426.04 89.3198C426.04 99.8932 426.027 110.467 426.053 121.04C421.72 122.12 417.24 121.667 412.84 121.707C412.56 100.427 412.787 79.1332 412.733 57.8532Z" fill="#4680ff"/>
    <path d="M48.56 91.9333C66.6267 91.9867 84.6933 91.96 102.76 91.9467C104.573 92.12 106.88 91.5334 108.187 93.2C114.667 100.027 121.52 106.48 128.107 113.213C130.56 115.84 133.96 117.947 134.893 121.64C115.907 121.827 96.9067 121.68 77.9067 121.72C77.9867 130.907 77.96 140.093 77.9333 149.267C77.2133 149.013 75.7733 148.48 75.0533 148.213C66.1333 139.387 57.16 130.587 48.4933 121.493C48.5467 111.64 48.44 101.787 48.56 91.9333Z" fill="#4680ff"/>
</svg>
