<?xml version="1.0" encoding="UTF-8" ?>
<!DOCTYPE svg PUBLIC "-//W3C//DTD SVG 1.1//EN" "http://www.w3.org/Graphics/SVG/1.1/DTD/svg11.dtd">
<svg width="375pt" height="135pt" viewBox="0 0 375 135" version="1.1" xmlns="http://www.w3.org/2000/svg">
    <g id="#fefefeff">
        <path fill="#fefefe" opacity="1.00" d=" M 14.44 24.72 C 35.85 24.82 57.27 24.72 78.68 24.77 C 79.87 24.69 80.60 25.87 81.45 26.52 C 84.77 29.87 88.27 33.04 91.46 36.52 C 94.86 40.15 98.97 43.15 101.64 47.41 C 79.93 47.69 58.21 47.47 36.49 47.52 C 36.42 54.68 36.66 61.86 36.34 69.02 C 28.75 62.19 21.85 54.60 14.47 47.53 C 13.98 39.97 14.14 32.30 14.44 24.72 Z" />
        <path fill="#fefefe" opacity="1.00" d=" M 174.51 24.73 C 177.53 24.77 180.54 24.78 183.56 24.72 C 183.82 27.92 183.78 31.14 183.67 34.35 C 180.59 34.27 177.52 34.29 174.44 34.33 C 174.27 31.13 174.25 27.92 174.51 24.73 Z" />
        <path fill="#fefefe" opacity="1.00" d=" M 125.75 25.37 C 138.74 25.26 151.73 25.33 164.72 25.33 C 164.75 28.33 164.76 31.33 164.62 34.32 C 155.20 34.28 145.78 34.31 136.37 34.31 C 136.39 43.37 136.41 52.43 136.35 61.49 C 144.40 61.42 152.45 61.48 160.51 61.45 C 160.52 64.47 160.52 67.49 160.51 70.51 C 152.48 70.52 144.45 70.57 136.42 70.49 C 136.30 77.01 136.47 83.54 136.35 90.06 C 133.66 92.62 129.28 90.77 125.87 91.20 C 125.59 69.26 125.84 47.31 125.75 25.37 Z" />
        <path fill="#fefefe" opacity="1.00" d=" M 174.33 43.35 C 177.47 43.37 180.60 43.37 183.74 43.37 C 183.74 59.32 183.79 75.28 183.71 91.24 C 180.60 91.32 177.48 91.37 174.38 91.14 C 174.26 75.21 174.34 59.28 174.33 43.35 Z" />
        <path fill="#fefefe" opacity="1.00" d=" M 202.83 49.08 C 208.92 42.38 219.17 42.02 227.17 45.04 C 233.74 47.27 238.87 53.09 240.48 59.80 C 242.41 69.87 240.88 80.19 241.52 90.36 C 238.44 91.93 234.93 91.13 231.63 91.28 C 231.40 82.85 231.63 74.41 231.51 65.98 C 231.35 60.55 227.97 55.40 222.88 53.38 C 217.93 51.74 211.97 52.40 208.02 56.02 C 204.16 59.09 202.81 64.22 202.77 68.95 C 202.75 76.37 202.85 83.78 202.72 91.19 C 199.58 91.33 196.43 91.36 193.30 91.17 C 193.07 75.27 193.39 59.37 193.14 43.47 C 196.34 43.32 199.54 43.36 202.75 43.38 C 202.77 45.28 202.79 47.18 202.83 49.08 Z" />
        <path fill="#fefefe" opacity="1.00" d=" M 269.44 43.82 C 276.93 42.11 285.42 44.05 290.82 49.70 C 290.76 47.58 290.79 45.47 290.85 43.36 C 293.97 43.38 297.08 43.39 300.20 43.34 C 300.47 58.90 300.31 74.47 300.30 90.03 C 298.23 92.65 293.97 90.77 291.00 91.17 C 290.82 89.11 290.77 87.05 290.70 84.99 C 286.52 88.29 281.48 91.05 276.00 90.84 C 265.14 91.73 254.52 83.54 252.35 72.92 C 250.60 66.15 252.06 58.68 256.02 52.96 C 259.38 48.59 264.13 45.32 269.44 43.82 M 267.63 53.77 C 260.87 57.30 257.28 66.30 260.83 73.28 C 262.73 78.46 268.02 81.15 273.07 82.36 C 276.55 82.84 279.83 81.34 282.87 79.86 C 288.60 77.16 291.95 70.42 290.63 64.21 C 288.05 54.88 276.42 49.10 267.63 53.77 Z" />
        <path fill="#fefefe" opacity="1.00" d=" M 309.55 43.39 C 312.89 43.35 316.23 43.34 319.57 43.45 C 319.52 45.25 319.47 47.05 319.37 48.85 C 325.44 42.64 335.10 42.09 342.93 44.79 C 351.89 47.48 358.03 56.76 357.77 65.99 C 357.75 74.38 357.88 82.78 357.69 91.17 C 354.52 91.34 351.34 91.31 348.18 91.27 C 347.55 85.20 347.97 79.09 347.86 73.01 C 347.71 68.52 348.45 63.75 346.41 59.56 C 344.02 55.59 339.69 52.58 334.94 52.59 C 327.04 51.79 318.82 58.82 319.53 66.99 C 319.53 74.92 319.52 82.85 319.54 90.78 C 316.29 91.59 312.93 91.25 309.63 91.28 C 309.42 75.32 309.59 59.35 309.55 43.39 Z" />
        <path fill="#fefefe" opacity="1.00" d=" M 36.42 68.95 C 49.97 68.99 63.52 68.97 77.07 68.96 C 78.43 69.09 80.16 68.65 81.14 69.90 C 86.00 75.02 91.14 79.86 96.08 84.91 C 97.92 86.88 100.47 88.46 101.17 91.23 C 86.93 91.37 72.68 91.26 58.43 91.29 C 58.49 98.18 58.47 105.07 58.45 111.95 C 57.91 111.76 56.83 111.36 56.29 111.16 C 49.60 104.54 42.87 97.94 36.37 91.12 C 36.41 83.73 36.33 76.34 36.42 68.95 Z" />
    </g>
</svg>
