<?xml version="1.0" encoding="UTF-8"?>
<svg xmlns="http://www.w3.org/2000/svg" xmlns:xlink="http://www.w3.org/1999/xlink" width="512px" height="181px" viewBox="0 0 510 181" version="1.1">
<defs>
<linearGradient id="linear0" gradientUnits="userSpaceOnUse" x1="112" y1="110" x2="136" y2="110" gradientTransform="matrix(1.613924,0,0,1.616071,0,0)">
<stop offset="0" style="stop-color:rgb(74.117647%,75.686275%,77.647059%);stop-opacity:0;"/>
<stop offset="1" style="stop-color:rgb(74.117647%,75.686275%,77.647059%);stop-opacity:1;"/>
</linearGradient>
<linearGradient id="linear1" gradientUnits="userSpaceOnUse" x1="183" y1="12.5" x2="135.5" y2="111" gradientTransform="matrix(1.613924,0,0,1.616071,0,0)">
<stop offset="0" style="stop-color:rgb(85.490196%,86.27451%,87.843137%);stop-opacity:1;"/>
<stop offset="1" style="stop-color:rgb(74.117647%,75.686275%,77.647059%);stop-opacity:1;"/>
</linearGradient>
<linearGradient id="linear2" gradientUnits="userSpaceOnUse" x1="185" y1="40" x2="177.005" y2="75.906" gradientTransform="matrix(1.613924,0,0,1.616071,0,0)">
<stop offset="0" style="stop-color:rgb(20.392157%,65.882353%,32.54902%);stop-opacity:1;"/>
<stop offset="1" style="stop-color:rgb(11.764706%,55.686275%,24.313725%);stop-opacity:1;"/>
</linearGradient>
</defs>
<g id="surface1">
<path style=" stroke:none;fill-rule:nonzero;fill:url(#linear0);" d="M 219.492188 174.535156 L 180.757812 174.535156 L 180.757812 181 L 219.492188 181 Z M 219.492188 174.535156 "/>
<path style=" stroke:none;fill-rule:nonzero;fill:url(#linear1);" d="M 219.492188 17.777344 L 288.890625 17.777344 C 294.242188 17.777344 298.574219 22.117188 298.574219 27.472656 L 298.574219 171.304688 C 298.574219 176.660156 294.242188 181 288.890625 181 L 219.492188 181 C 214.144531 181 209.808594 176.660156 209.808594 171.304688 L 209.808594 27.472656 C 209.808594 22.117188 214.144531 17.777344 219.492188 17.777344 Z M 219.492188 17.777344 "/>
<path style=" stroke:none;fill-rule:nonzero;fill:rgb(94.509804%,95.294118%,95.686275%);fill-opacity:1;" d="M 245.316406 25.855469 L 264.683594 25.855469 C 265.574219 25.855469 266.296875 26.582031 266.296875 27.472656 C 266.296875 28.367188 265.574219 29.089844 264.683594 29.089844 L 245.316406 29.089844 C 244.425781 29.089844 243.703125 28.367188 243.703125 27.472656 C 243.703125 26.582031 244.425781 25.855469 245.316406 25.855469 Z M 245.316406 25.855469 "/>
<path style=" stroke:none;fill-rule:nonzero;fill:rgb(97.254902%,97.647059%,98.039216%);fill-opacity:1;" d="M 209.808594 33.9375 L 298.574219 33.9375 L 298.574219 163.222656 L 209.808594 163.222656 Z M 209.808594 33.9375 "/>
<path style=" stroke:none;fill-rule:nonzero;fill:url(#linear2);" d="M 305.03125 51.714844 C 308.597656 51.714844 311.488281 54.609375 311.488281 58.179688 L 311.488281 106.660156 C 311.488281 110.230469 308.597656 113.125 305.03125 113.125 L 256.613281 113.125 C 253.046875 113.125 250.160156 110.230469 250.160156 106.660156 L 250.160156 58.179688 C 250.160156 54.609375 253.046875 51.714844 256.613281 51.714844 Z M 305.03125 51.714844 "/>
<path style=" stroke:none;fill-rule:evenodd;fill:rgb(100%,100%,100%);fill-opacity:1;" d="M 261.457031 63.027344 L 261.457031 69.492188 L 258.226562 69.492188 L 258.226562 59.792969 L 267.910156 59.792969 L 267.910156 63.027344 Z M 258.226562 105.042969 L 258.226562 95.347656 L 261.457031 95.347656 L 261.457031 101.8125 L 267.910156 101.8125 L 267.910156 105.042969 Z M 300.191406 105.042969 L 303.417969 105.042969 L 303.417969 95.347656 L 300.191406 95.347656 L 300.191406 101.8125 L 293.734375 101.8125 L 293.734375 105.042969 Z M 303.417969 59.792969 L 303.417969 69.492188 L 300.191406 69.492188 L 300.191406 63.027344 L 293.734375 63.027344 L 293.734375 59.792969 Z M 303.417969 59.792969 "/>
<path style=" stroke:none;fill-rule:nonzero;fill:rgb(100%,100%,100%);fill-opacity:1;" d="M 266.296875 80.804688 L 279.207031 80.804688 L 279.207031 67.875 L 266.296875 67.875 Z M 269.523438 71.105469 L 275.980469 71.105469 L 275.980469 77.570312 L 269.523438 77.570312 Z M 266.296875 96.964844 L 279.207031 96.964844 L 279.207031 84.035156 L 266.296875 84.035156 Z M 269.523438 87.269531 L 275.980469 87.269531 L 275.980469 93.730469 L 269.523438 93.730469 Z M 282.4375 67.875 L 282.4375 80.804688 L 295.347656 80.804688 L 295.347656 67.875 Z M 292.121094 77.570312 L 285.664062 77.570312 L 285.664062 71.105469 L 292.121094 71.105469 Z M 295.347656 93.730469 L 292.121094 93.730469 L 292.121094 96.964844 L 295.347656 96.964844 Z M 285.664062 84.035156 L 282.4375 84.035156 L 282.4375 87.269531 L 285.664062 87.269531 Z M 288.890625 87.269531 L 285.664062 87.269531 L 285.664062 90.5 L 288.890625 90.5 Z M 285.664062 90.5 L 282.4375 90.5 L 282.4375 93.730469 L 285.664062 93.730469 Z M 288.890625 93.730469 L 285.664062 93.730469 L 285.664062 96.964844 L 288.890625 96.964844 Z M 292.121094 90.5 L 288.890625 90.5 L 288.890625 93.730469 L 292.121094 93.730469 Z M 292.121094 84.035156 L 288.890625 84.035156 L 288.890625 87.269531 L 292.121094 87.269531 Z M 295.347656 87.269531 L 292.121094 87.269531 L 292.121094 90.5 L 295.347656 90.5 Z M 295.347656 87.269531 "/>
<path style="fill-rule:nonzero;fill:rgb(100%,100%,100%);fill-opacity:1;stroke-width:2;stroke-linecap:butt;stroke-linejoin:miter;stroke:rgb(90.980392%,91.764706%,92.941176%);stroke-opacity:1;stroke-miterlimit:4;" d="M 285.000245 50.998964 C 285.000245 60.389503 277.388266 68.001036 267.999755 68.001036 C 258.611244 68.001036 250.999265 60.389503 250.999265 50.998964 C 250.999265 41.610843 258.611244 33.999309 267.999755 33.999309 C 277.388266 33.999309 285.000245 41.610843 285.000245 50.998964 Z M 285.000245 50.998964 " transform="matrix(1.613924,0,0,1.616071,0,0)"/>
<path style=" stroke:none;fill-rule:nonzero;fill:rgb(90.980392%,91.764706%,92.941176%);fill-opacity:1;" d="M 432.53125 66.257812 C 423.621094 66.257812 416.390625 73.5 416.390625 82.417969 C 416.390625 91.339844 423.621094 98.582031 432.53125 98.582031 C 441.441406 98.582031 448.671875 91.339844 448.671875 82.417969 C 448.671875 73.5 441.441406 66.257812 432.53125 66.257812 Z M 424.574219 92.570312 C 425.269531 91.113281 429.496094 89.691406 432.53125 89.691406 C 435.566406 89.691406 439.808594 91.113281 440.488281 92.570312 C 438.226562 94.371094 435.421875 95.351562 432.53125 95.347656 C 429.53125 95.347656 426.769531 94.3125 424.574219 92.570312 Z M 442.796875 90.226562 C 440.488281 87.414062 434.886719 86.460938 432.53125 86.460938 C 430.175781 86.460938 424.574219 87.414062 422.265625 90.226562 C 420.550781 87.984375 419.621094 85.242188 419.621094 82.417969 C 419.621094 75.292969 425.414062 69.492188 432.53125 69.492188 C 439.648438 69.492188 445.441406 75.292969 445.441406 82.417969 C 445.441406 85.359375 444.441406 88.058594 442.796875 90.226562 Z M 432.53125 72.722656 C 429.402344 72.722656 426.882812 75.246094 426.882812 78.378906 C 426.882812 81.515625 429.402344 84.035156 432.53125 84.035156 C 435.664062 84.035156 438.179688 81.515625 438.179688 78.378906 C 438.179688 75.246094 435.664062 72.722656 432.53125 72.722656 Z M 432.53125 80.804688 C 431.191406 80.804688 430.109375 79.722656 430.109375 78.378906 C 430.109375 77.039062 431.191406 75.957031 432.53125 75.957031 C 433.871094 75.957031 434.953125 77.039062 434.953125 78.378906 C 434.953125 79.722656 433.871094 80.804688 432.53125 80.804688 Z M 432.53125 80.804688 "/>
<path style="fill-rule:nonzero;fill:rgb(100%,100%,100%);fill-opacity:1;stroke-width:2;stroke-linecap:butt;stroke-linejoin:miter;stroke:rgb(90.980392%,91.764706%,92.941176%);stroke-opacity:1;stroke-miterlimit:4;" d="M 238.999203 50.998964 C 238.999203 60.389503 231.389645 68.001036 222.001134 68.001036 C 212.610202 68.001036 205.000643 60.389503 205.000643 50.998964 C 205.000643 41.610843 212.610202 33.999309 222.001134 33.999309 C 231.389645 33.999309 238.999203 41.610843 238.999203 50.998964 Z M 238.999203 50.998964 " transform="matrix(1.613924,0,0,1.616071,0,0)"/>
<path style=" stroke:none;fill-rule:nonzero;fill:rgb(90.980392%,91.764706%,92.941176%);fill-opacity:1;" d="M 367.976562 75.957031 L 366.359375 75.957031 L 366.359375 72.722656 C 366.359375 68.261719 362.746094 64.644531 358.292969 64.644531 C 353.835938 64.644531 350.222656 68.261719 350.222656 72.722656 L 350.222656 75.957031 L 348.609375 75.957031 C 346.832031 75.957031 345.378906 77.410156 345.378906 79.1875 L 345.378906 95.347656 C 345.378906 97.125 346.832031 98.582031 348.609375 98.582031 L 367.976562 98.582031 C 369.75 98.582031 371.203125 97.125 371.203125 95.347656 L 371.203125 79.1875 C 371.203125 77.410156 369.75 75.957031 367.976562 75.957031 Z M 353.449219 72.722656 C 353.449219 70.039062 355.613281 67.875 358.292969 67.875 C 360.96875 67.875 363.132812 70.039062 363.132812 72.722656 L 363.132812 75.957031 L 353.449219 75.957031 Z M 367.976562 95.347656 L 348.609375 95.347656 L 348.609375 79.1875 L 367.976562 79.1875 Z M 358.292969 90.5 C 360.066406 90.5 361.519531 89.046875 361.519531 87.269531 C 361.519531 85.488281 360.066406 84.035156 358.292969 84.035156 C 356.515625 84.035156 355.0625 85.488281 355.0625 87.269531 C 355.0625 89.046875 356.515625 90.5 358.292969 90.5 Z M 358.292969 90.5 "/>
<path style="fill-rule:nonzero;fill:rgb(100%,100%,100%);fill-opacity:1;stroke-width:2;stroke-linecap:butt;stroke-linejoin:miter;stroke:rgb(90.980392%,91.764706%,92.941176%);stroke-opacity:1;stroke-miterlimit:4;" d="M 65.000735 50.000691 C 65.000735 59.388812 57.388756 67.000345 48.000245 67.000345 C 38.611734 67.000345 30.999755 59.388812 30.999755 50.000691 C 30.999755 40.610152 38.611734 33.001036 48.000245 33.001036 C 57.388756 33.001036 65.000735 40.610152 65.000735 50.000691 Z M 65.000735 50.000691 " transform="matrix(1.613924,0,0,1.616071,0,0)"/>
<path style="fill-rule:nonzero;fill:rgb(90.980392%,91.764706%,92.941176%);fill-opacity:1;stroke-width:2;stroke-linecap:butt;stroke-linejoin:miter;stroke:rgb(90.980392%,91.764706%,92.941176%);stroke-opacity:1;stroke-miterlimit:4;" d="M 48.000245 40.001036 L 40.001011 43.998964 L 40.001011 49.331146 C 40.001011 54.259669 43.408854 58.878798 48.000245 60.000345 C 52.589216 58.878798 55.999479 54.269337 55.999479 49.331146 L 55.999479 43.998964 Z M 48.000245 40.001036 " transform="matrix(1.613924,0,0,1.616071,0,0)"/>
<path style=" stroke:none;fill-rule:nonzero;fill:rgb(100%,100%,100%);fill-opacity:1;" d="M 77.46875 66.257812 L 66.171875 72.078125 L 66.171875 79.828125 C 66.171875 87 70.988281 93.71875 77.46875 95.347656 Z M 77.46875 66.257812 "/>
<path style="fill-rule:nonzero;fill:rgb(100%,100%,100%);fill-opacity:1;stroke-width:2;stroke-linecap:butt;stroke-linejoin:miter;stroke:rgb(90.980392%,91.764706%,92.941176%);stroke-opacity:1;stroke-miterlimit:4;" d="M 110.999357 50.000691 C 110.999357 59.388812 103.389798 67.000345 93.998866 67.000345 C 84.610355 67.000345 77.000797 59.388812 77.000797 50.000691 C 77.000797 40.610152 84.610355 33.001036 93.998866 33.001036 C 103.389798 33.001036 110.999357 40.610152 110.999357 50.000691 Z M 110.999357 50.000691 " transform="matrix(1.613924,0,0,1.616071,0,0)"/>
<path style=" stroke:none;fill-rule:nonzero;fill:rgb(90.980392%,91.764706%,92.941176%);fill-opacity:1;" d="M 164.621094 67.875 L 159.503906 67.875 L 156.550781 64.644531 L 146.867188 64.644531 L 143.914062 67.875 L 138.796875 67.875 C 137.023438 67.875 135.570312 69.328125 135.570312 71.105469 L 135.570312 90.5 C 135.570312 92.277344 137.023438 93.730469 138.796875 93.730469 L 164.621094 93.730469 C 166.394531 93.730469 167.847656 92.277344 167.847656 90.5 L 167.847656 71.105469 C 167.847656 69.328125 166.394531 67.875 164.621094 67.875 Z M 164.621094 90.5 L 138.796875 90.5 L 138.796875 71.105469 L 164.621094 71.105469 Z M 151.707031 74.339844 C 148.140625 74.339844 145.253906 77.230469 145.253906 80.804688 C 145.253906 84.375 148.140625 87.269531 151.707031 87.269531 C 155.277344 87.269531 158.164062 84.375 158.164062 80.804688 C 158.164062 77.230469 155.277344 74.339844 151.707031 74.339844 Z M 151.707031 74.339844 "/>
</g>
</svg>
